<svg width="33" height="32" viewBox="0 0 33 32" fill="none" xmlns="http://www.w3.org/2000/svg">
<path d="M21.2076 25.2926C21.3005 25.3855 21.3742 25.4958 21.4244 25.6172C21.4747 25.7386 21.5006 25.8687 21.5006 26.0001C21.5006 26.1315 21.4747 26.2616 21.4244 26.383C21.3742 26.5044 21.3005 26.6147 21.2076 26.7076C21.1146 26.8005 21.0043 26.8742 20.883 26.9245C20.7616 26.9747 20.6314 27.0006 20.5001 27.0006C20.3687 27.0006 20.2386 26.9747 20.1172 26.9245C19.9958 26.8742 19.8855 26.8005 19.7926 26.7076L9.79255 16.7076C9.69958 16.6147 9.62582 16.5044 9.57549 16.383C9.52517 16.2616 9.49927 16.1315 9.49927 16.0001C9.49927 15.8687 9.52517 15.7385 9.57549 15.6171C9.62582 15.4957 9.69958 15.3854 9.79255 15.2926L19.7926 5.29257C19.9802 5.10493 20.2347 4.99951 20.5001 4.99951C20.7654 4.99951 21.0199 5.10493 21.2076 5.29257C21.3952 5.48021 21.5006 5.7347 21.5006 6.00007C21.5006 6.26543 21.3952 6.51993 21.2076 6.70757L11.9138 16.0001L21.2076 25.2926Z" fill="white"/>
</svg>
