<svg width="33" height="32" viewBox="0 0 33 32" fill="none" xmlns="http://www.w3.org/2000/svg">
<path d="M20.349 6.03948C20.4125 5.99692 20.4778 5.95619 20.5449 5.91743C21.4013 5.42302 22.3833 5.34953 23.2918 5.47699C24.2062 5.60527 25.1416 5.94825 26.014 6.4093C27.7432 7.32321 29.4341 8.81394 30.4008 10.4882C31.4106 12.2373 31.4679 13.9195 30.8124 15.3759C30.19 16.7588 28.9972 17.7807 27.7949 18.4748C27.3915 18.7077 26.9565 18.9213 26.4997 19.0965C26.4969 18.2497 26.4051 17.3689 26.2363 16.4783C26.339 16.4254 26.4419 16.3692 26.5449 16.3097C27.495 15.7612 28.2048 15.0784 28.5327 14.3499C28.8274 13.6949 28.8827 12.8589 28.2357 11.7382C27.5455 10.5428 26.2384 9.35556 24.8458 8.61961C24.1573 8.25572 23.5008 8.03079 22.9444 7.95274C22.6738 7.91477 22.4483 7.91401 22.2627 7.93759C21.6616 7.20922 21.0186 6.56633 20.349 6.03948Z" fill="white"/>
<path d="M12.6508 6.03925C12.5874 5.99678 12.5222 5.95612 12.4552 5.91743C11.5989 5.42302 10.6168 5.34953 9.70835 5.47699C8.79398 5.60527 7.85858 5.94825 6.9862 6.4093C5.2569 7.32321 3.56603 8.81394 2.59937 10.4882C1.58954 12.2373 1.53224 13.9195 2.18775 15.3759C2.81015 16.7588 4.00297 17.7807 5.20521 18.4748C5.60851 18.7076 6.04321 18.9211 6.49982 19.0963C6.50264 18.2494 6.59446 17.3686 6.76326 16.478C6.66075 16.4252 6.55801 16.3691 6.45521 16.3097C5.50514 15.7612 4.79538 15.0784 4.46749 14.3499C4.17271 13.6949 4.11742 12.8589 4.76444 11.7382C5.45463 10.5428 6.76176 9.35556 8.15432 8.61961C8.84287 8.25572 9.49937 8.03079 10.0557 7.95274C10.3261 7.91481 10.5514 7.91401 10.7369 7.93752C11.3381 7.20907 11.9811 6.56613 12.6508 6.03925Z" fill="white"/>
<path d="M15.6998 21.4333C16.0998 21.9667 16.8998 21.9667 17.2998 21.4333L18.2998 20.1C18.7942 19.4408 18.3238 18.5 17.4998 18.5H15.4998C14.6757 18.5 14.2053 19.4408 14.6998 20.1L15.6998 21.4333Z" fill="#F5F5F5"/>
<path d="M14.5002 14C14.5002 14.8284 13.8287 15.5 13.0002 15.5C12.1718 15.5 11.5002 14.8284 11.5002 14C11.5002 13.1716 12.1718 12.5 13.0002 12.5C13.8287 12.5 14.5002 13.1716 14.5002 14Z" fill="white"/>
<path d="M21.5002 14C21.5002 14.8284 20.8287 15.5 20.0002 15.5C19.1718 15.5 18.5002 14.8284 18.5002 14C18.5002 13.1716 19.1718 12.5 20.0002 12.5C20.8287 12.5 21.5002 13.1716 21.5002 14Z" fill="white"/>
<path fill-rule="evenodd" clip-rule="evenodd" d="M16.5002 3.25C14.9059 3.25 13.4024 3.91221 12.0918 4.893C10.7776 5.87655 9.58879 7.22923 8.59094 8.75104C6.60621 11.778 5.25023 15.6715 5.25023 19.1364C5.25023 22.697 6.6887 25.1839 8.9261 26.7286C11.0925 28.2242 13.878 28.75 16.5002 28.75C19.1225 28.75 21.908 28.2242 24.0744 26.7286C26.3118 25.1839 27.7502 22.697 27.7502 19.1364C27.7502 15.6715 26.3943 11.778 24.4095 8.75104C23.4117 7.22923 22.2229 5.87655 20.9086 4.893C19.5981 3.91221 18.0946 3.25 16.5002 3.25ZM7.75023 19.1364C7.75023 16.25 8.90897 12.8253 10.6816 10.1219C11.5624 8.7785 12.563 7.66295 13.5897 6.89457C14.6202 6.12343 15.6093 5.75 16.5002 5.75C17.3912 5.75 18.3803 6.12343 19.4107 6.89457C20.4375 7.66295 21.438 8.7785 22.3189 10.1219C24.0915 12.8253 25.2502 16.25 25.2502 19.1364C25.2502 21.927 24.174 23.6219 22.654 24.6712C21.2911 25.6122 19.4705 26.0996 17.5002 26.22V22.567C17.7258 22.4368 17.9308 22.2589 18.1 22.0334L19.1 20.7C20.0888 19.3816 19.148 17.5 17.5 17.5H15.5C13.8519 17.5 12.9111 19.3816 13.9 20.7L14.9 22.0334C15.0693 22.2591 15.2744 22.4371 15.5002 22.5673V26.22C13.53 26.0996 11.7094 25.6122 10.3464 24.6712C8.82648 23.6219 7.75023 21.927 7.75023 19.1364ZM17.5 19.5L16.5 20.8334L15.5 19.5H17.5Z" fill="white"/>
</svg>
